<?xml version="1.0" encoding="iso-8859-1"?>
<!-- Uploaded to: SVG Repo, www.svgrepo.com, Generator: SVG Repo Mixer Tools -->
<svg fill="#885C5C" height="800px" width="800px" version="1.1" id="Layer_1" xmlns="http://www.w3.org/2000/svg" xmlns:xlink="http://www.w3.org/1999/xlink"
	 viewBox="0 0 512 512" xml:space="preserve">
<g>
	<g>
		<path d="M424.322,214.566C379.24,203.661,319.461,197.654,256,197.654s-123.239,6.006-168.322,16.911
			c-50.781,12.284-76.529,29.123-76.529,50.05c0,66.058,25.455,128.168,71.676,174.889C129.076,486.254,190.577,512,256,512
			s126.924-25.746,173.174-72.496c46.221-46.721,71.676-108.831,71.676-174.889C500.85,243.689,475.102,226.85,424.322,214.566z
			 M256,491.602c-113.627,0-207.792-85.834-222.456-196.753c1.821,1.08,3.731,2.143,5.772,3.182
			C79.954,318.723,162.982,331.577,256,331.577c93.017,0,176.045-12.854,216.684-33.546c2.041-1.039,3.951-2.103,5.772-3.182
			C463.792,405.767,369.627,491.602,256,491.602z M71.257,288.943C113.821,275.18,182.423,266.706,256,266.706
			c73.575,0,142.178,8.474,184.743,22.237C398.178,302.706,329.572,311.179,256,311.179
			C182.427,311.179,113.822,302.706,71.257,288.943z M467.776,277.486c-42.172-19.3-122.358-31.178-211.776-31.178
			S86.395,258.186,44.223,277.486c-9.254-5.407-12.675-10.093-12.675-12.87c0-5.356,12.734-18.566,60.926-30.223
			c43.558-10.537,101.632-16.34,163.526-16.34s119.968,5.802,163.526,16.34c48.192,11.658,60.926,24.868,60.926,30.223
			C480.452,267.394,477.031,272.079,467.776,277.486z"/>
	</g>
</g>
<g>
	<g>
		<path d="M233.336,155.401c-21.737,0-39.42-17.684-39.42-39.42c0-5.633-4.566-10.199-10.199-10.199s-10.199,4.567-10.199,10.199
			c0,32.984,26.835,59.818,59.818,59.818c5.633,0,10.199-4.567,10.199-10.199C243.536,159.968,238.969,155.401,233.336,155.401z"/>
	</g>
</g>
<g>
	<g>
		<path d="M252.967,49.073c-5.633,0-10.199,4.567-10.199,10.199c0,5.632,4.566,10.199,10.199,10.199
			c21.737,0,39.421,17.684,39.421,39.42c0,5.632,4.567,10.199,10.199,10.199s10.199-4.567,10.199-10.199
			C312.786,75.908,285.951,49.073,252.967,49.073z"/>
	</g>
</g>
<g>
	<g>
		<path d="M134.098,0c-5.633,0-10.199,4.567-10.199,10.199c0,5.632,4.566,10.199,10.199,10.199c21.737,0,39.42,17.684,39.42,39.42
			c0,5.632,4.566,10.199,10.199,10.199s10.199-4.567,10.199-10.199C193.916,26.834,167.081,0,134.098,0z"/>
	</g>
</g>
<g>
	<g>
		<path d="M188.332,441.115c-31.29-12.281-58.833-32.958-79.649-59.797c-3.452-4.45-9.859-5.26-14.31-1.807
			c-4.451,3.452-5.261,9.859-1.808,14.31c23.066,29.74,53.606,52.66,88.315,66.283c1.224,0.48,2.484,0.708,3.724,0.708
			c4.072,0,7.919-2.456,9.497-6.476C196.158,449.091,193.576,443.173,188.332,441.115z"/>
	</g>
</g>
<g>
	<g>
		<path d="M89.655,351.372c-2.739-5.361-5.249-10.914-7.461-16.508c-2.071-5.238-7.996-7.804-13.235-5.733
			c-5.238,2.07-7.804,7.997-5.734,13.236c2.451,6.196,5.231,12.348,8.265,18.287c1.804,3.53,5.38,5.561,9.091,5.561
			c1.561,0,3.146-0.36,4.632-1.119C90.229,362.532,92.218,356.388,89.655,351.372z"/>
	</g>
</g>
</svg>