<?xml version="1.0" encoding="iso-8859-1"?>
<!-- Uploaded to: SVG Repo, www.svgrepo.com, Generator: SVG Repo Mixer Tools -->
<svg fill="#885C5C" height="800px" width="800px" version="1.1" id="Layer_1" xmlns="http://www.w3.org/2000/svg" xmlns:xlink="http://www.w3.org/1999/xlink"
	 viewBox="0 0 511.999 511.999" xml:space="preserve">
<g>
	<g>
		<path d="M492.466,297.584l0.005-62.375c11.283-3.39,19.529-13.867,19.529-26.239c0-55.708-45.322-101.03-101.03-101.03H101.036
			c-55.708,0-101.03,45.322-101.03,101.03c0,12.371,8.246,22.849,19.529,26.239l-0.005,62.377C8.246,300.975,0,311.453,0,323.825
			v22.638c0,31.758,25.843,57.596,57.608,57.596h396.79c31.758,0,57.596-25.838,57.596-57.596v-22.638
			C511.994,311.45,503.748,300.97,492.466,297.584z M394.828,125.606l19.728,19.729c5.508,5.515,5.508,14.486,0.008,19.993
			c-5.518,5.51-14.487,5.512-19.996,0.004l-39.724-39.725H394.828z M262.25,125.606l19.728,19.729
			c5.506,5.515,5.506,14.486,0.008,19.993c-5.515,5.508-14.486,5.506-19.996,0.004l-39.724-39.725H262.25z M101.035,125.607h28.638
			l19.728,19.729c5.506,5.515,5.506,14.486,0.008,19.993c-5.515,5.506-14.486,5.506-19.996,0.004l-39.022-39.022
			C93.88,125.864,97.427,125.607,101.035,125.607z M17.672,208.97c0-35.195,21.935-65.344,52.844-77.551l46.409,46.409
			c6.198,6.191,14.339,9.286,22.481,9.286c8.145,0,16.292-3.098,22.495-9.294c12.383-12.398,12.383-32.571-0.004-44.973
			l-7.239-7.239h42.622l52.221,52.221c6.199,6.191,14.339,9.286,22.481,9.286c8.145,0,16.292-3.098,22.496-9.294
			c12.383-12.398,12.383-32.571-0.004-44.973l-7.239-7.239h42.622l52.217,52.217c6.197,6.197,14.337,9.294,22.481,9.294
			c8.145,0,16.293-3.099,22.5-9.298c12.381-12.398,12.381-32.571-0.004-44.973l-6.697-6.697
			c41.562,4.681,73.976,40.028,73.976,82.82c0,5.364-4.364,9.728-9.728,9.728h-0.967H28.367H27.4
			C22.036,218.698,17.672,214.334,17.672,208.97z M37.201,257.559v-21.195h437.602v21.195H37.201z M474.798,275.232v21.196h-242.75
			l21.194-21.196H474.798z M228.258,275.232l-54.633,54.64l-54.64-54.64H228.258z M115.196,296.428h-78v-21.196H94L115.196,296.428z
			 M454.398,386.391H57.608c-22.023,0-39.94-17.913-39.94-39.929v-22.638c0-5.365,4.365-9.729,9.729-9.729h0.966h104.501
			l34.515,34.515c1.656,1.657,3.903,2.588,6.246,2.588s4.59-0.932,6.247-2.588l34.511-34.515h269.249h0.978
			c5.358,0,9.717,4.364,9.717,9.729v22.638h0C494.327,368.479,476.414,386.391,454.398,386.391z"/>
	</g>
</g>
</svg>